<?xml version="1.0" encoding="UTF-8"?>
<svg width="22px" height="22px" viewBox="0 0 22 22" version="1.1" xmlns="http://www.w3.org/2000/svg"
    xmlns:xlink="http://www.w3.org/1999/xlink">
    <title>haha</title>
    <defs>
        <linearGradient x1="50%" y1="0%" x2="50%" y2="100%" id="linearGradient-1">
            <stop stop-color="#99E7FF" offset="0%"></stop>
            <stop stop-color="#00B0FA" offset="100%"></stop>
        </linearGradient>
        <path
            d="M8.6146983,0 C9.98681642,0 11.0991379,2.72191014 11.0991379,6.07955645 C11.0991379,9.43720276 9.98681642,12.1591129 8.6146983,12.1591129 C7.47231281,12.1591129 6.51001162,10.2723552 6.21980096,7.70280522 C6.0433099,7.72721216 5.85948755,7.74015523 5.67095528,7.74015523 C5.50949821,7.74015523 5.35149541,7.73066274 5.19822769,7.71249985 C5.06709974,10.3961713 4.14734797,12.4346172 2.92596632,12.4986271 C1.4966349,12.5735352 0.195479069,9.91608033 0.0197534385,6.56303555 C-0.155972192,3.20999078 0.860276096,0.43108592 2.28960752,0.356177834 C3.44885996,0.295423988 4.52379922,2.03200311 4.98238896,4.47929477 C5.20089699,4.43972411 5.43214774,4.41895767 5.67095528,4.41895767 C5.85948755,4.41895767 6.0433099,4.43190074 6.22038309,4.456478 C6.51001162,1.88675774 7.47231281,0 8.6146983,0 Z M20.2490043,5.12185643 C21.2007026,6.98601528 21.7961073,11.0129321 20.6023421,11.5559914 C19.4270929,11.880769 18.608231,11.3512449 17.8382075,9.75524113 C17.3528468,9.81317683 16.8176775,9.84559224 16.2552524,9.84559224 C15.6838562,9.84559224 15.1405921,9.81213447 14.6494649,9.75188697 L14.5898095,9.95520112 C14.1289294,11.4787286 13.5742192,12.1848246 12.0396764,11.5559914 C11.7611326,11.4271135 11.5415221,11.2350194 11.3726193,10.9952483 C11.8854698,9.69604833 12.0396764,7.94617593 12.0396764,6.03566069 C12.0396764,5.54047082 12.0797498,5.17519427 12.0396764,4.70774857 C13.2646543,2.03909735 14.8613474,0.148558114 16.0772583,0.00639464985 C17.3255765,-0.139557844 19.0052306,2.2324376 20.2490043,5.12185643 Z M16.0771135,4.70774857 L15.8594554,5.35643138 L15.6267794,6.03566069 L15.5238025,6.39596877 C15.3943873,6.84246519 15.281358,7.27039705 15.1784328,7.67609453 C15.5211001,7.64941559 15.8821799,7.63515267 16.2552524,7.63515267 C16.5162941,7.63515267 16.7714644,7.64213567 17.0184743,7.65546587 C16.8526937,7.15229698 16.6899488,6.61098559 16.5277373,6.03566069 L16.295025,5.35643138 L16.0771135,4.70774857 Z"
            id="path-2"></path>
        <filter x="-7.1%" y="-12.0%" width="114.1%" height="124.0%" filterUnits="objectBoundingBox"
            id="filter-3">
            <feGaussianBlur stdDeviation="1" in="SourceAlpha" result="shadowBlurInner1"></feGaussianBlur>
            <feOffset dx="0" dy="1" in="shadowBlurInner1" result="shadowOffsetInner1"></feOffset>
            <feComposite in="shadowOffsetInner1" in2="SourceAlpha" operator="arithmetic" k2="-1"
                k3="1" result="shadowInnerInner1"></feComposite>
            <feColorMatrix values="0 0 0 0 1   0 0 0 0 1   0 0 0 0 1  0 0 0 0.5 0" type="matrix"
                in="shadowInnerInner1" result="shadowMatrixInner1"></feColorMatrix>
            <feGaussianBlur stdDeviation="1" in="SourceAlpha" result="shadowBlurInner2"></feGaussianBlur>
            <feOffset dx="0" dy="-1" in="shadowBlurInner2" result="shadowOffsetInner2"></feOffset>
            <feComposite in="shadowOffsetInner2" in2="SourceAlpha" operator="arithmetic" k2="-1"
                k3="1" result="shadowInnerInner2"></feComposite>
            <feColorMatrix values="0 0 0 0 0   0 0 0 0 0   0 0 0 0 0  0 0 0 0.232162369 0"
                type="matrix" in="shadowInnerInner2" result="shadowMatrixInner2"></feColorMatrix>
            <feMerge>
                <feMergeNode in="shadowMatrixInner1"></feMergeNode>
                <feMergeNode in="shadowMatrixInner2"></feMergeNode>
            </feMerge>
        </filter>
        <linearGradient x1="50%" y1="0%" x2="50%" y2="100%" id="linearGradient-4">
            <stop stop-color="#99E7FF" offset="0%"></stop>
            <stop stop-color="#00B0FA" offset="100%"></stop>
        </linearGradient>
        <path
            d="M9.79847538,12.0695848 C10.8660379,12.0695848 11.7314684,14.2113454 11.7314684,16.8533409 C11.7314684,19.4953364 10.8660379,21.637097 9.79847538,21.637097 C8.90856895,21.637097 8.15911757,20.1488571 7.93432528,18.1232025 C7.78246513,18.1476498 7.62360534,18.1599986 7.46025189,18.1599986 C7.37320847,18.1599986 7.28744095,18.1564924 7.20327347,18.149688 C7.09120185,20.2525037 6.3455057,21.8494716 5.35923116,21.9011601 C4.20201896,21.961807 3.15182203,19.8721457 3.01355067,17.233771 C2.8752793,14.5953962 3.70129406,12.4074068 4.85850627,12.3467599 C5.79528177,12.2976656 6.66192938,13.657684 7.03146171,15.5772042 C7.16909531,15.5567388 7.312844,15.5466832 7.46025189,15.5466832 C7.62360534,15.5466832 7.78246513,15.559032 7.93468881,15.5823545 C8.1590782,13.5579029 8.90854558,12.0695848 9.79847538,12.0695848 Z M18.9311266,16.0997656 C19.6799794,17.5665965 20.1506922,20.5544152 19.2634519,21.1625251 C18.4910035,21.5051409 17.6400688,21.0014184 17.0341685,19.7455879 C16.6522579,19.7911751 16.2311549,19.8166815 15.7886055,19.8166815 C15.338997,19.8166815 14.9115245,19.790355 14.5250765,19.7429486 L14.478136,19.9029283 C14.1154883,21.1017302 13.6790093,21.6573285 12.4715399,21.1625251 C12.2523651,21.0611164 12.0795625,20.9099653 11.9466598,20.7212991 C12.350201,19.6990115 12.4715399,18.322108 12.4715399,16.8188011 C12.4715399,16.4291563 12.5030721,16.141735 12.4715399,15.773921 C13.4354252,13.6740677 14.6917982,12.1864792 15.6485491,12.0746165 C16.6308,11.9597724 17.9524516,13.8261993 18.9311266,16.0997656 Z M15.6484352,15.773921 L15.4771689,16.2843431 L15.2940856,16.8188011 L15.2130572,17.1023129 C15.1112257,17.4536428 15.0222875,17.790365 14.9412999,18.1095919 C15.2109308,18.0885993 15.4950499,18.0773764 15.7886055,18.0773764 C15.9940086,18.0773764 16.1947917,18.082871 16.3891537,18.09336 C16.2587077,17.6974369 16.1306504,17.2715009 16.0030127,16.8188011 L15.8199009,16.2843431 L15.6484352,15.773921 Z"
            id="path-5"></path>
        <filter x="-6.0%" y="-10.2%" width="111.9%" height="120.3%" filterUnits="objectBoundingBox"
            id="filter-6">
            <feGaussianBlur stdDeviation="0.5" in="SourceAlpha" result="shadowBlurInner1"></feGaussianBlur>
            <feOffset dx="0" dy="1" in="shadowBlurInner1" result="shadowOffsetInner1"></feOffset>
            <feComposite in="shadowOffsetInner1" in2="SourceAlpha" operator="arithmetic" k2="-1"
                k3="1" result="shadowInnerInner1"></feComposite>
            <feColorMatrix values="0 0 0 0 1   0 0 0 0 1   0 0 0 0 1  0 0 0 0.5 0" type="matrix"
                in="shadowInnerInner1" result="shadowMatrixInner1"></feColorMatrix>
            <feGaussianBlur stdDeviation="0.5" in="SourceAlpha" result="shadowBlurInner2"></feGaussianBlur>
            <feOffset dx="0" dy="-1" in="shadowBlurInner2" result="shadowOffsetInner2"></feOffset>
            <feComposite in="shadowOffsetInner2" in2="SourceAlpha" operator="arithmetic" k2="-1"
                k3="1" result="shadowInnerInner2"></feComposite>
            <feColorMatrix values="0 0 0 0 0   0 0 0 0 0   0 0 0 0 0  0 0 0 0.232162369 0"
                type="matrix" in="shadowInnerInner2" result="shadowMatrixInner2"></feColorMatrix>
            <feMerge>
                <feMergeNode in="shadowMatrixInner1"></feMergeNode>
                <feMergeNode in="shadowMatrixInner2"></feMergeNode>
            </feMerge>
        </filter>
    </defs>
    <g id="haha" stroke="none" stroke-width="1" fill="none" fill-rule="evenodd">
        <g id="Group" transform="translate(0.3161, 0.0386)">
            <g id="Combined-Shape">
                <use fill="url(#linearGradient-1)" fill-rule="evenodd" xlink:href="#path-2"></use>
                <use fill="black" fill-opacity="1" filter="url(#filter-3)" xlink:href="#path-2"></use>
                <path stroke="#1C9ED9" stroke-width="0.66313187"
                    d="M8.6146983,0.331565935 C8.87138936,0.331565935 9.10878957,0.470287048 9.32876613,0.693255886 C9.607646,0.975929278 9.85467233,1.39254111 10.0645357,1.90608793 C10.5010132,2.97417166 10.767572,4.45022432 10.767572,6.07955645 C10.767572,7.70888858 10.5010132,9.18494124 10.0645357,10.253025 C9.85467233,10.7665718 9.607646,11.1831836 9.32876613,11.465857 C9.10878957,11.6888259 8.87138936,11.827547 8.6146983,11.827547 C8.40932516,11.827547 8.21539537,11.7375275 8.03258768,11.5869907 C7.80279357,11.3977621 7.59314096,11.1162583 7.40434875,10.764963 C6.99330586,10.0001145 6.69050578,8.91608824 6.54927219,7.66559401 C6.01249552,7.39675211 5.84388384,7.4085893 5.67095528,7.4085893 C5.03620355,9.03648005 4.64179504,10.2391119 4.15958496,11.0750289 C3.79737979,11.702916 3.39635312,12.1419542 2.9086135,12.1675156 C2.63657963,12.1817722 2.37617282,12.0561115 2.1304575,11.8411737 C1.82525163,11.574197 1.54596031,11.1717414 1.30054483,10.6705097 C0.790530115,9.62886574 0.436041239,8.17094269 0.350864974,6.54568273 C0.265688709,4.92042277 0.465841202,3.4334322 0.864180566,2.34418344 C1.05585865,1.82004463 1.29155191,1.39059979 1.56717916,1.09318289 C1.78908132,0.853738316 2.03492647,0.701546061 2.30696034,0.68728937 C2.78735641,0.662112879 3.22348178,1.04942232 3.60322145,1.63086983 C4.06323695,2.3352336 4.43369887,3.35139615 4.65649534,4.54036288 C5.13491567,4.7277395 5.36342747,4.74918594 5.55027636,4.75079037 L5.67095528,4.7505236 C5.84384424,4.7505236 6.01241739,4.7623574 6.17479964,4.7848956 C6.6908022,3.2431336 6.99342658,2.15914026 7.40435481,1.39429 C7.59311678,1.04295215 7.80275773,0.761414725 8.03255096,0.57216168 C8.21536472,0.421599978 8.40930874,0.331565935 8.6146983,0.331565935 Z M17.7960685,1.49531035 C18.548631,2.41811464 19.3044973,3.76626077 19.9444556,5.2529519 C20.4545468,6.25366974 20.8505851,7.85453896 20.9241464,9.19406007 C20.9555073,9.76512966 20.9292863,10.287832 20.8195213,10.6879919 C20.7499204,10.9417293 20.656474,11.1538646 20.4854725,11.2441237 C20.0150575,11.3684697 19.6111716,11.3338446 19.2480904,11.0973082 C18.8392244,10.8309444 18.4870154,10.3369743 18.1368335,9.61116311 C17.3255977,9.48250975 16.8037106,9.5140263 16.2552524,9.5140263 C15.6982265,9.5140263 15.1686158,9.48152081 14.6898361,9.42278799 C14.0886486,10.463523 13.8600361,11.0439445 13.4731092,11.3114208 C13.1577727,11.5294078 12.7421876,11.4846559 12.171588,11.2516621 C12.0050683,11.173418 11.8652439,11.0665889 11.7490393,10.9366007 C12.2208027,9.62612972 12.3712382,7.90726646 12.3711481,6.04356872 C12.3795735,5.69040729 12.3856553,5.4419172 12.3873057,5.24656249 L12.3870255,5.03434352 C12.3856883,4.93768823 12.3824552,4.85274051 12.3768753,4.76836858 C13.5202672,2.30464812 14.9696794,0.469716532 16.1157625,0.335717285 C16.6341937,0.275102666 17.209081,0.77553694 17.7960685,1.49531035 Z M16.0769351,3.66597634 L15.5451129,5.25095736 L15.2082766,6.2940896 C15.0748394,6.75391903 14.9608398,7.18544739 15.2041696,8.00666009 C15.5386468,7.9806188 15.8910972,7.9667186 16.2552524,7.9667186 C16.5101829,7.9667186 16.7593796,7.9735319 17.3333881,7.55171023 C17.168173,7.05025779 17.006032,6.51058752 16.844379,5.93687713 L16.6086921,5.24896524 L16.0769351,3.66597634 Z"
                    stroke-linejoin="square"></path>
            </g>
            <g id="Combined-Shape-Copy">
                <use fill="url(#linearGradient-4)" fill-rule="evenodd" xlink:href="#path-5"></use>
                <use fill="black" fill-opacity="1" filter="url(#filter-6)" xlink:href="#path-5"></use>
                <path stroke="#1C9ED9" stroke-width="0.514018692"
                    d="M9.79847538,12.3265942 C9.99818793,12.3265942 10.1826702,12.4359753 10.3537193,12.6113164 C10.5710149,12.8340645 10.7634938,13.1623162 10.9270169,13.5670018 C11.2668626,14.4080493 11.474459,15.5703303 11.474459,16.8533409 C11.474459,18.1363515 11.2668626,19.2986325 10.9270169,20.13968 C10.7634938,20.5443656 10.5710149,20.8726173 10.3537193,21.0953653 C10.1826702,21.2707065 9.99818793,21.3800876 9.79847538,21.3800876 C9.16613902,21.0407904 9.00258833,20.8183839 8.85533728,20.5408179 C8.5350532,19.9370873 8.29926431,19.0815647 8.18976656,18.0948555 C8.14256972,17.669554 8.12360889,17.262888 8.13169933,16.8851371 C8.00082604,17.247734 7.85318493,17.6300157 7.69536685,18.028584 C7.23739814,19.1851801 6.81085027,20.1831375 6.35517538,20.8516647 C6.0414676,21.3119099 5.72342804,21.6247113 5.34578033,21.644503 C5.12215639,21.6562226 4.90751241,21.5573105 4.70542216,21.3855521 C4.45835214,21.1755648 4.2322614,20.8588292 4.03392788,20.4641891 C3.62239788,19.6453347 3.33720956,18.49879 3.27020779,17.2203201 C3.20320602,15.9418502 3.36698549,14.7717761 3.6906675,13.914391 C3.8466634,13.5011812 4.03840772,13.1625478 4.26217461,12.927885 C4.44520414,12.7359433 4.64833316,12.6151367 4.8719571,12.603417 C5.26292016,12.5829275 5.62012769,12.8848749 5.92990497,13.3454081 C6.30096365,13.8970459 6.59959604,14.6934341 6.77908648,15.6257896 L6.91229653,16.3177437 L7.25585497,15.7025097 C7.34549846,15.5419788 7.43275513,15.3847999 7.51788448,15.2314525 C8.06297387,14.2495581 8.51751044,13.4263481 8.95580877,12.8950073 C9.23654051,12.5546815 9.50059785,12.3265942 9.79847538,12.3265942 Z M17.0040229,13.2437276 C17.5963702,13.9700734 18.1913425,15.0311949 18.6950593,16.2013827 C19.095392,16.9867565 19.4076066,18.1904678 19.4754528,19.2240612 C19.5249617,19.9782968 19.4789588,20.6799675 19.1362465,20.937455 C18.8311067,21.0639168 18.5128515,21.0201014 18.2116475,20.8286555 C17.8630196,20.6070668 17.5395216,20.2015633 17.2656449,19.6339076 C16.6311361,19.5348625 16.2203287,19.5596722 15.7886055,19.5596722 C15.350136,19.5596722 14.9332468,19.5340838 14.5563698,19.4878515 C14.0871561,20.305215 13.9066286,20.7624595 13.6016599,20.9732794 C13.3526866,21.1453906 13.0246077,21.1107184 12.5737977,20.9266321 C12.6101061,19.6450586 12.7285461,18.2920751 12.7284762,16.8249309 C12.7417553,16.2683247 12.7476432,16.0422796 12.7330307,15.8206572 C13.6336667,13.8798048 14.775807,12.435417 15.6783952,12.329887 C16.0871941,12.2820905 16.5408927,12.6758299 17.0040229,13.2437276 Z M15.6482969,14.9664039 L15.2335101,16.2025862 L14.9684811,17.0233425 C14.863532,17.3850073 14.7738417,17.7245173 14.9612494,18.3658258 C15.224532,18.3453275 15.501962,18.3343857 15.7886055,18.3343857 C15.9892716,18.3343857 16.1854243,18.3397488 16.6332554,18.0129351 C16.5032477,17.6183424 16.3756584,17.1936784 16.2484537,16.7422301 L16.0630361,16.2010421 L15.6482969,14.9664039 Z"
                    stroke-linejoin="square"></path>
            </g>
        </g>
    </g>
</svg>